<!DOCTYPE svg PUBLIC "-//W3C//DTD SVG 1.1//EN" "http://www.w3.org/Graphics/SVG/1.1/DTD/svg11.dtd">
<!-- Uploaded to: SVG Repo, www.svgrepo.com, Transformed by: SVG Repo Mixer Tools -->
<svg width="800px" height="800px" viewBox="-3.2 -3.2 70.40 70.40" id="svg5" version="1.1" xml:space="preserve" xmlns="http://www.w3.org/2000/svg" xmlns:svg="http://www.w3.org/2000/svg" fill="#249e96" stroke="#249e96" stroke-width="0.512">
<g id="SVGRepo_bgCarrier" stroke-width="0"/>
<g id="SVGRepo_tracerCarrier" stroke-linecap="round" stroke-linejoin="round"/>
<g id="SVGRepo_iconCarrier"> <defs id="defs2"/> <g id="layer1" transform="translate(-192)"> <path d="m 224,24 c -4.40642,0 -8,3.593581 -8,8 0,4.406419 3.59358,8 8,8 4.40642,0 8,-3.593581 8,-8 0,-4.406419 -3.59358,-8 -8,-8 z m 0,2 c 3.32554,0 6,2.674459 6,6 0,3.325541 -2.67446,6 -6,6 -3.32554,0 -6,-2.674459 -6,-6 0,-3.325541 2.67446,-6 6,-6 z" id="path65130" style="color:#438ad6;fill:#438ad6;fill-rule:evenodd;stroke-linecap:round;stroke-linejoin:round;stroke-miterlimit:4.1;-inkscape-stroke:none"/> <path d="m 224,4 a 1,1 0 0 0 -1,1 V 7.5859375 L 221.70703,6.2929688 A 1,1 0 0 0 221,6 a 1,1 0 0 0 -0.70703,0.2929688 1,1 0 0 0 0,1.4140624 L 223,10.414062 v 3.589844 l -3.33008,-2.998047 a 1,1 0 0 0 -0.72265,-0.253906 1,1 0 0 0 -0.69141,0.328125 1,1 0 0 0 0.0742,1.414063 L 223,16.697266 v 2.345703 c -2.8336,0.216759 -5.41401,1.344015 -7.45117,3.091797 l -1.66406,-1.664063 0.33007,-6.273437 a 1,1 0 0 0 -0.94531,-1.050782 1,1 0 0 0 -1.05078,0.947266 l -0.23633,4.474609 -2.53906,-2.539062 v -3.828125 a 1,1 0 0 0 -1,-1 1,1 0 0 0 -1,1 v 1.828125 l -1.82813,-1.828125 a 1,1 0 0 0 -1.41406,0 1,1 0 0 0 0,1.414062 l 1.82813,1.828125 h -1.82813 a 1,1 0 0 0 -1,1 1,1 0 0 0 1,1 h 3.82813 l 2.53906,2.539063 -4.47461,0.236328 a 1,1 0 0 0 -0.94727,1.050781 1,1 0 0 0 1.05079,0.945313 l 6.27343,-0.330078 1.66407,1.664062 c -1.74779,2.03716 -2.87504,4.617574 -3.0918,7.451172 h -2.3457 l -4.20313,-4.669922 a 1,1 0 0 0 -0.69141,-0.328125 1,1 0 0 0 -0.72265,0.253906 1,1 0 0 0 -0.0742,1.414063 L 206.00391,31 h -3.58985 l -2.70703,-2.707031 A 1,1 0 0 0 199,28 a 1,1 0 0 0 -0.70703,0.292969 1,1 0 0 0 0,1.414062 L 199.58594,31 H 197 a 1,1 0 0 0 -1,1 1,1 0 0 0 1,1 h 2.58594 l -1.29297,1.292969 a 1,1 0 0 0 0,1.414062 1,1 0 0 0 1.41406,0 L 202.41406,33 h 3.58985 l -2.99805,3.330078 a 1,1 0 0 0 0.0742,1.414063 1,1 0 0 0 1.41406,-0.07422 L 208.69727,33 h 2.3457 c 0.21676,2.833598 1.34401,5.414012 3.0918,7.451172 l -1.66407,1.664062 -6.27343,-0.330078 a 1,1 0 0 0 -1.05079,0.945313 1,1 0 0 0 0.94727,1.050781 l 4.47461,0.236328 -2.53906,2.539063 h -3.82813 a 1,1 0 0 0 -1,1 1,1 0 0 0 1,1 h 1.82813 l -1.82813,1.828125 a 1,1 0 0 0 0,1.414062 1,1 0 0 0 1.41406,0 l 1.82813,-1.828125 v 1.828125 a 1,1 0 0 0 1,1 1,1 0 0 0 1,-1 v -3.828125 l 2.53906,-2.539062 0.23633,4.474609 a 1,1 0 0 0 1.05078,0.947266 1,1 0 0 0 0.94531,-1.050782 l -0.33007,-6.273437 1.66406,-1.664063 c 2.03716,1.747782 4.61757,2.875038 7.45117,3.091797 v 2.345703 l -4.66992,4.203125 a 1,1 0 0 0 -0.0742,1.414063 1,1 0 0 0 1.41406,0.07422 L 223,49.996094 v 3.589844 l -2.70703,2.707031 a 1,1 0 0 0 0,1.414062 1,1 0 0 0 1.41406,0 L 223,56.414062 V 59 a 1,1 0 0 0 1,1 1,1 0 0 0 1,-1 v -2.585938 l 1.29297,1.292969 a 1,1 0 0 0 1.41406,0 1,1 0 0 0 0,-1.414062 L 225,53.585938 v -3.589844 l 3.33008,2.998047 a 1,1 0 0 0 1.41406,-0.07422 1,1 0 0 0 -0.0742,-1.414063 L 225,47.302734 v -2.345703 c 2.8336,-0.216759 5.41401,-1.344015 7.45117,-3.091797 l 1.66406,1.664063 -0.33007,6.273437 a 1,1 0 0 0 0.94531,1.050782 1,1 0 0 0 1.05078,-0.947266 l 0.23633,-4.474609 2.53906,2.539062 v 3.828125 a 1,1 0 0 0 1,1 1,1 0 0 0 1,-1 v -1.828125 l 1.82813,1.828125 a 1,1 0 0 0 1.41406,0 1,1 0 0 0 0,-1.414062 l -1.82813,-1.828125 h 1.82813 a 1,1 0 0 0 1,-1 1,1 0 0 0 -1,-1 h -3.82813 l -2.53906,-2.539063 4.47461,-0.236328 a 1,1 0 0 0 0.94727,-1.050781 1,1 0 0 0 -1.05079,-0.945313 l -6.27343,0.330078 -1.66407,-1.664062 c 1.74779,-2.03716 2.87504,-4.617574 3.0918,-7.451172 h 2.3457 l 4.20313,4.669922 a 1,1 0 0 0 1.41406,0.07422 1,1 0 0 0 0.0742,-1.414063 L 241.99609,33 h 3.58985 l 2.70703,2.707031 a 1,1 0 0 0 1.41406,0 1,1 0 0 0 0,-1.414062 L 248.41406,33 H 251 a 1,1 0 0 0 1,-1 1,1 0 0 0 -1,-1 h -2.58594 l 1.29297,-1.292969 a 1,1 0 0 0 0,-1.414062 A 1,1 0 0 0 249,28 1,1 0 0 0 248.29297,28.292969 L 245.58594,31 h -3.58985 l 2.99805,-3.330078 a 1,1 0 0 0 -0.0742,-1.414063 1,1 0 0 0 -0.72265,-0.253906 1,1 0 0 0 -0.69141,0.328125 L 239.30273,31 h -2.3457 c -0.21676,-2.833598 -1.34401,-5.414012 -3.0918,-7.451172 l 1.66407,-1.664062 6.27343,0.330078 a 1,1 0 0 0 1.05079,-0.945313 1,1 0 0 0 -0.94727,-1.050781 l -4.47461,-0.236328 2.53906,-2.539063 h 3.82813 a 1,1 0 0 0 1,-1 1,1 0 0 0 -1,-1 h -1.82813 l 1.82813,-1.828125 a 1,1 0 0 0 0,-1.414062 1,1 0 0 0 -1.41406,0 l -1.82813,1.828125 v -1.828125 a 1,1 0 0 0 -1,-1 1,1 0 0 0 -1,1 v 3.828125 l -2.53906,2.539062 -0.23633,-4.474609 a 1,1 0 0 0 -1.05078,-0.947266 1,1 0 0 0 -0.94531,1.050782 l 0.33007,6.273437 -1.66406,1.664063 C 230.41401,20.386984 227.8336,19.259728 225,19.042969 v -2.345703 l 4.66992,-4.203125 a 1,1 0 0 0 0.0742,-1.414063 1,1 0 0 0 -1.41406,-0.07422 L 225,14.003906 v -3.589844 l 2.70703,-2.7070308 a 1,1 0 0 0 0,-1.4140624 1,1 0 0 0 -1.41406,0 L 225,7.5859375 V 5 a 1,1 0 0 0 -1,-1 z m -0.14648,17.003906 a 1,1 0 0 0 0.14648,0.03906 1,1 0 0 0 0.14648,-0.03906 c 2.80216,0.03656 5.34731,1.112267 7.26758,2.863282 a 1,1 0 0 0 0.25782,0.460937 1,1 0 0 0 0.46093,0.257813 c 1.76899,1.939983 2.84994,4.517305 2.86524,7.353515 A 1,1 0 0 0 234.98242,32 a 1,1 0 0 0 0.0156,0.06055 c -0.0153,2.84169 -1.09994,5.423974 -2.875,7.365234 a 1,1 0 0 0 -0.44336,0.253907 1,1 0 0 0 -0.25391,0.443359 C 229.47065,41.910801 226.86571,43 224,43 218.01603,43 213.17019,38.250512 213.00781,32.306641 A 1,1 0 0 0 213.08984,32 a 1,1 0 0 0 -0.0801,-0.390625 c 0.20381,-5.855785 4.95583,-10.528641 10.84375,-10.605469 z" id="path7488" style="color:#438ad6;fill:#438ad6;fill-rule:evenodd;stroke-linecap:round;stroke-linejoin:round;stroke-miterlimit:4.1;-inkscape-stroke:none"/> </g> </g>
</svg>